ffmpeg started on 2016-12-08 at 13:20:26
Report written to "Output/x264/results/ffmpeg/sintelveryslow2500k.log"
Command line:
Tools/ffmpeg/ffmpeg -benchmark -y -i Input/y4m/sintel.y4m -c:v libx264 -preset veryslow -b:v 2500k -an Output/x264/encoded/sintelveryslow2500k.mkv
ffmpeg version N-82227-gdb23fde Copyright (c) 2000-2016 the FFmpeg developers
  built with gcc 5.4.0 (Ubuntu 5.4.0-6ubuntu1~16.04.2) 20160609
  configuration: --prefix=/home/jaroslav/ffmpeg_build --pkg-config-flags=--static --extra-cflags=-I/home/jaroslav/ffmpeg_build/include --extra-ldflags=-L/home/jaroslav/ffmpeg_build/lib --bindir=/home/jaroslav/bin --enable-gpl --enable-libass --enable-libfdk-aac --enable-libfreetype --enable-libmp3lame --enable-libopus --enable-libtheora --enable-libvorbis --enable-libvpx --enable-libx264 --enable-libx265 --enable-nvenc --enable-libmfx --enable-libxvid --enable-libgsm --enable-libopencore-amrnb --enable-version3 --enable-nonfree
  libavutil      55. 35.100 / 55. 35.100
  libavcodec     57. 66.101 / 57. 66.101
  libavformat    57. 57.100 / 57. 57.100
  libavdevice    57.  2.100 / 57.  2.100
  libavfilter     6. 66.100 /  6. 66.100
  libswscale      4.  3.100 /  4.  3.100
  libswresample   2.  4.100 /  2.  4.100
  libpostproc    54.  2.100 / 54.  2.100
Input #0, yuv4mpegpipe, from 'Input/y4m/sintel.y4m':
  Duration: 00:00:20.83, start: 0.000000, bitrate: 2057307 kb/s
    Stream #0:0: Video: rawvideo (I420 / 0x30323449), yuv420p(progressive), 4096x1744, SAR 1:1 DAR 256:109, 24 fps, 24 tbr, 24 tbn, 24 tbc
[libx264 @ 0x3f081c0] using SAR=1/1
[libx264 @ 0x3f081c0] DPB size (16 frames, 446464 mbs) > level limit (6 frames, 184320 mbs)
[libx264 @ 0x3f081c0] using cpu capabilities: MMX2 SSE2Fast SSSE3 SSE4.2 AVX FMA3 AVX2 LZCNT BMI2
[libx264 @ 0x3f081c0] profile High, level 5.2
[libx264 @ 0x3f081c0] 264 - core 148 - H.264/MPEG-4 AVC codec - Copyleft 2003-2016 - http://www.videolan.org/x264.html - options: cabac=1 ref=16 deblock=1:0:0 analyse=0x3:0x133 me=umh subme=10 psy=1 psy_rd=1.00:0.00 mixed_ref=1 me_range=24 chroma_me=1 trellis=2 8x8dct=1 cqm=0 deadzone=21,11 fast_pskip=1 chroma_qp_offset=-2 threads=6 lookahead_threads=1 sliced_threads=0 nr=0 decimate=1 interlaced=0 bluray_compat=0 constrained_intra=0 bframes=8 b_pyramid=2 b_adapt=2 b_bias=0 direct=3 weightb=1 open_gop=0 weightp=2 keyint=250 keyint_min=24 scenecut=40 intra_refresh=0 rc_lookahead=60 rc=abr mbtree=1 bitrate=2500 ratetol=1.0 qcomp=0.60 qpmin=0 qpmax=69 qpstep=4 ip_ratio=1.40 aq=1:1.00
Output #0, matroska, to 'Output/x264/encoded/sintelveryslow2500k.mkv':
  Metadata:
    encoder         : Lavf57.57.100
    Stream #0:0: Video: h264 (libx264) (H264 / 0x34363248), yuv420p, 4096x1744 [SAR 1:1 DAR 256:109], q=-1--1, 2500 kb/s, 24 fps, 1k tbn, 24 tbc
    Metadata:
      encoder         : Lavc57.66.101 libx264
    Side data:
      cpb: bitrate max/min/avg: 0/0/2500000 buffer size: 0 vbv_delay: -1
Stream mapping:
  Stream #0:0 -> #0:0 (rawvideo (native) -> h264 (libx264))
Press [q] to stop, [?] for help
frame=   10 fps=0.0 q=0.0 size=       0kB time=00:00:00.00 bitrate=N/A speed=   0x    frame=   18 fps= 18 q=0.0 size=       0kB time=00:00:00.00 bitrate=N/A speed=   0x    frame=   21 fps= 13 q=0.0 size=       0kB time=00:00:00.00 bitrate=N/A speed=   0x    frame=   29 fps= 14 q=0.0 size=       0kB time=00:00:00.00 bitrate=N/A speed=   0x    frame=   35 fps= 14 q=0.0 size=       0kB time=00:00:00.00 bitrate=N/A speed=   0x    frame=   42 fps= 13 q=0.0 size=       0kB time=00:00:00.00 bitrate=N/A speed=   0x    frame=   45 fps= 12 q=0.0 size=       0kB time=00:00:00.00 bitrate=N/A speed=   0x    frame=   54 fps= 13 q=0.0 size=       0kB time=00:00:00.00 bitrate=N/A speed=   0x    frame=   62 fps=7.6 q=0.0 size=       0kB time=00:00:00.00 bitrate=N/A speed=   0x    frame=   63 fps=5.6 q=0.0 size=       0kB time=00:00:00.00 bitrate=N/A speed=   0x    frame=   71 fps=6.0 q=0.0 size=       0kB time=00:00:00.00 bitrate=N/A speed=   0x    frame=   72 fps=2.4 q=0.0 size=       0kB time=00:00:00.00 bitrate=N/A speed=   0x    frame=   74 fps=2.5 q=0.0 size=       0kB time=00:00:00.00 bitrate=N/A speed=   0x    frame=   76 fps=2.5 q=36.0 size=       1kB time=-00:00:00.08 bitrate=N/A speed=N/A    frame=   79 fps=2.4 q=41.0 size=       1kB time=00:00:00.04 bitrate= 136.9kbits/s speed=0.00133x    frame=   81 fps=2.4 q=48.0 size=       1kB time=00:00:00.12 bitrate=  46.7kbits/s speed=0.0038x    frame=   84 fps=2.4 q=53.0 size=       1kB time=00:00:00.25 bitrate=  23.5kbits/s speed=0.0073x    frame=   86 fps=2.4 q=53.0 size=       1kB time=00:00:00.33 bitrate=  17.6kbits/s speed=0.00949x    frame=   88 fps=2.4 q=53.0 size=       1kB time=00:00:00.41 bitrate=  14.1kbits/s speed=0.0116x    frame=   89 fps=2.4 q=53.0 size=       1kB time=00:00:00.45 bitrate=  12.8kbits/s speed=0.0125x    frame=   90 fps=2.3 q=53.0 size=       1kB time=00:00:00.50 bitrate=  11.8kbits/s speed=0.013x    frame=   91 fps=2.3 q=53.0 size=       1kB time=00:00:00.54 bitrate=  10.8kbits/s speed=0.0138x    frame=   93 fps=2.2 q=54.0 size=       1kB time=00:00:00.62 bitrate=   9.4kbits/s speed=0.015x    frame=   95 fps=2.2 q=54.0 size=       1kB time=00:00:00.70 bitrate=   8.3kbits/s speed=0.0167x    frame=   96 fps=2.2 q=54.0 size=       1kB time=00:00:00.75 bitrate=   7.8kbits/s speed=0.0172x    frame=   97 fps=2.2 q=54.0 size=       1kB time=00:00:00.79 bitrate=   7.4kbits/s speed=0.0177x    frame=   98 fps=2.1 q=54.0 size=       1kB time=00:00:00.83 bitrate=   7.1kbits/s speed=0.0181x    frame=   99 fps=2.1 q=54.0 size=       1kB time=00:00:00.87 bitrate=   6.7kbits/s speed=0.0184x    frame=  100 fps=2.1 q=54.0 size=       1kB time=00:00:00.91 bitrate=   6.4kbits/s speed=0.019x    frame=  101 fps=2.0 q=54.0 size=       1kB time=00:00:00.95 bitrate=   6.1kbits/s speed=0.0193x    frame=  103 fps=2.1 q=54.0 size=       1kB time=00:00:01.04 bitrate=   5.6kbits/s speed=0.0208x    frame=  104 fps=2.0 q=54.0 size=       1kB time=00:00:01.08 bitrate=   5.4kbits/s speed=0.0214x    frame=  105 fps=2.0 q=53.0 size=       1kB time=00:00:01.12 bitrate=   5.2kbits/s speed=0.0218x    frame=  106 fps=2.0 q=53.0 size=       1kB time=00:00:01.16 bitrate=   5.0kbits/s speed=0.0221x    frame=  107 fps=2.0 q=53.0 size=       1kB time=00:00:01.20 bitrate=   4.9kbits/s speed=0.0226x    frame=  108 fps=2.0 q=53.0 size=       1kB time=00:00:01.25 bitrate=   4.7kbits/s speed=0.0227x    frame=  109 fps=2.0 q=53.0 size=       1kB time=00:00:01.29 bitrate=   4.6kbits/s speed=0.0232x    frame=  110 fps=1.9 q=53.0 size=       1kB time=00:00:01.33 bitrate=   4.4kbits/s speed=0.0235x    frame=  111 fps=1.9 q=53.0 size=       1kB time=00:00:01.37 bitrate=   4.3kbits/s speed=0.0239x    frame=  112 fps=1.9 q=53.0 size=       1kB time=00:00:01.41 bitrate=   4.2kbits/s speed=0.0242x    frame=  113 fps=1.9 q=53.0 size=       1kB time=00:00:01.45 bitrate=   4.0kbits/s speed=0.0245x    frame=  114 fps=1.9 q=53.0 size=       1kB time=00:00:01.50 bitrate=   3.9kbits/s speed=0.025x    frame=  115 fps=1.9 q=53.0 size=       1kB time=00:00:01.54 bitrate=   3.8kbits/s speed=0.0251x    frame=  116 fps=1.9 q=53.0 size=       1kB time=00:00:01.58 bitrate=   3.7kbits/s speed=0.0255x    frame=  117 fps=1.9 q=53.0 size=       1kB time=00:00:01.62 bitrate=   3.6kbits/s speed=0.0259x    frame=  119 fps=1.9 q=53.0 size=       1kB time=00:00:01.70 bitrate=   3.4kbits/s speed=0.0269x    frame=  121 fps=1.9 q=53.0 size=       1kB time=00:00:01.79 bitrate=   3.3kbits/s speed=0.0274x    frame=  122 fps=1.9 q=53.0 size=       1kB time=00:00:01.83 bitrate=   3.2kbits/s speed=0.0278x    frame=  123 fps=1.9 q=53.0 size=       1kB time=00:00:01.87 bitrate=   3.1kbits/s speed=0.0282x    frame=  125 fps=1.8 q=52.0 size=       1kB time=00:00:01.95 bitrate=   3.0kbits/s speed=0.0288x    frame=  127 fps=1.8 q=52.0 size=       1kB time=00:00:02.04 bitrate=   2.9kbits/s speed=0.0293x    frame=  128 fps=1.8 q=52.0 size=       1kB time=00:00:02.08 bitrate=   2.8kbits/s speed=0.0294x    frame=  129 fps=1.8 q=52.0 size=       1kB time=00:00:02.12 bitrate=   2.8kbits/s speed=0.0295x    frame=  130 fps=1.8 q=52.0 size=       1kB time=00:00:02.16 bitrate=   2.7kbits/s speed=0.0297x    frame=  131 fps=1.8 q=52.0 size=       1kB time=00:00:02.20 bitrate=   2.7kbits/s speed=0.0298x    frame=  132 fps=1.8 q=52.0 size=       1kB time=00:00:02.25 bitrate=   2.6kbits/s speed=0.03x    frame=  133 fps=1.8 q=52.0 size=       1kB time=00:00:02.29 bitrate=   2.6kbits/s speed=0.0302x    frame=  134 fps=1.7 q=52.0 size=       1kB time=00:00:02.33 bitrate=   2.5kbits/s speed=0.0303x    frame=  135 fps=1.7 q=52.0 size=       1kB time=00:00:02.37 bitrate=   2.5kbits/s speed=0.0305x    frame=  136 fps=1.7 q=52.0 size=       1kB time=00:00:02.41 bitrate=   2.4kbits/s speed=0.0305x    frame=  137 fps=1.7 q=52.0 size=       1kB time=00:00:02.45 bitrate=   2.4kbits/s speed=0.0307x    frame=  138 fps=1.7 q=52.0 size=       1kB time=00:00:02.50 bitrate=   2.4kbits/s speed=0.0308x    frame=  139 fps=1.7 q=52.0 size=       1kB time=00:00:02.54 bitrate=   2.3kbits/s speed=0.031x    frame=  140 fps=1.7 q=52.0 size=       1kB time=00:00:02.58 bitrate=   2.3kbits/s speed=0.0312x    frame=  141 fps=1.7 q=52.0 size=       1kB time=00:00:02.62 bitrate=   2.2kbits/s speed=0.0315x    frame=  142 fps=1.6 q=52.0 size=       1kB time=00:00:02.66 bitrate=   2.2kbits/s speed=0.0308x    frame=  144 fps=1.6 q=52.0 size=       1kB time=00:00:02.75 bitrate=   2.1kbits/s speed=0.0312x    frame=  146 fps=1.6 q=52.0 size=       1kB time=00:00:02.83 bitrate=   2.1kbits/s speed=0.0319x    frame=  147 fps=1.6 q=52.0 size=       1kB time=00:00:02.87 bitrate=   2.0kbits/s speed=0.0318x    frame=  148 fps=1.6 q=52.0 size=       1kB time=00:00:02.91 bitrate=   2.0kbits/s speed=0.0315x    frame=  149 fps=1.6 q=52.0 size=       1kB time=00:00:02.95 bitrate=   2.0kbits/s speed=0.0318x    frame=  150 fps=1.6 q=52.0 size=       1kB time=00:00:03.00 bitrate=   2.0kbits/s speed=0.032x    frame=  151 fps=1.6 q=52.0 size=       1kB time=00:00:03.04 bitrate=   1.9kbits/s speed=0.0321x    frame=  152 fps=1.6 q=52.0 size=       1kB time=00:00:03.08 bitrate=   1.9kbits/s speed=0.0323x    frame=  154 fps=1.6 q=52.0 size=       1kB time=00:00:03.16 bitrate=   1.9kbits/s speed=0.032x    frame=  155 fps=1.6 q=52.0 size=       1kB time=00:00:03.20 bitrate=   1.8kbits/s speed=0.0321x    frame=  156 fps=1.5 q=52.0 size=       1kB time=00:00:03.25 bitrate=   1.8kbits/s speed=0.0322x    frame=  157 fps=1.5 q=52.0 size=       1kB time=00:00:03.29 bitrate=   1.8kbits/s speed=0.0324x    frame=  158 fps=1.5 q=52.0 size=       1kB time=00:00:03.33 bitrate=   1.8kbits/s speed=0.0325x    frame=  159 fps=1.5 q=52.0 size=       1kB time=00:00:03.37 bitrate=   1.7kbits/s speed=0.0327x    frame=  160 fps=1.5 q=52.0 size=       1kB time=00:00:03.41 bitrate=   1.7kbits/s speed=0.0326x    frame=  161 fps=1.5 q=52.0 size=       1kB time=00:00:03.45 bitrate=   1.7kbits/s speed=0.0324x    frame=  162 fps=1.5 q=52.0 size=       1kB time=00:00:03.50 bitrate=   1.7kbits/s speed=0.0326x    frame=  163 fps=1.5 q=52.0 size=       1kB time=00:00:03.54 bitrate=   1.7kbits/s speed=0.0325x    frame=  164 fps=1.5 q=52.0 size=       1kB time=00:00:03.58 bitrate=   1.6kbits/s speed=0.0326x    frame=  165 fps=1.5 q=52.0 size=       1kB time=00:00:03.62 bitrate=   1.6kbits/s speed=0.0326x    frame=  166 fps=1.5 q=52.0 size=       1kB time=00:00:03.66 bitrate=   1.6kbits/s speed=0.0327x    frame=  167 fps=1.5 q=52.0 size=       1kB time=00:00:03.70 bitrate=   1.6kbits/s speed=0.0328x    frame=  168 fps=1.5 q=52.0 size=       1kB time=00:00:03.75 bitrate=   1.6kbits/s speed=0.0329x    frame=  169 fps=1.5 q=52.0 size=       1kB time=00:00:03.79 bitrate=   1.6kbits/s speed=0.033x    frame=  170 fps=1.5 q=52.0 size=       1kB time=00:00:03.83 bitrate=   1.5kbits/s speed=0.0331x    frame=  171 fps=1.5 q=52.0 size=       1kB time=00:00:03.87 bitrate=   1.5kbits/s speed=0.0333x    frame=  172 fps=1.4 q=52.0 size=       1kB time=00:00:03.91 bitrate=   1.5kbits/s speed=0.0328x    frame=  175 fps=1.5 q=52.0 size=       1kB time=00:00:04.04 bitrate=   1.5kbits/s speed=0.0336x    frame=  176 fps=1.5 q=52.0 size=       1kB time=00:00:04.08 bitrate=   1.4kbits/s speed=0.0337x    frame=  177 fps=1.5 q=52.0 size=       1kB time=00:00:04.12 bitrate=   1.4kbits/s speed=0.0339x    frame=  178 fps=1.4 q=52.0 size=       1kB time=00:00:04.16 bitrate=   1.4kbits/s speed=0.0335x    frame=  180 fps=1.4 q=52.0 size=       1kB time=00:00:04.25 bitrate=   1.4kbits/s speed=0.0339x    frame=  182 fps=1.4 q=52.0 size=       1kB time=00:00:04.33 bitrate=   1.4kbits/s speed=0.0342x    frame=  184 fps=1.4 q=52.0 size=       1kB time=00:00:04.41 bitrate=   1.3kbits/s speed=0.0345x    frame=  185 fps=1.4 q=52.0 size=       1kB time=00:00:04.45 bitrate=   1.3kbits/s speed=0.0346x    frame=  186 fps=1.4 q=52.0 size=       1kB time=00:00:04.50 bitrate=   1.3kbits/s speed=0.0346x    frame=  187 fps=1.4 q=52.0 size=       1kB time=00:00:04.54 bitrate=   1.3kbits/s speed=0.0348x    frame=  188 fps=1.4 q=52.0 size=       1kB time=00:00:04.58 bitrate=   1.3kbits/s speed=0.0349x    frame=  189 fps=1.4 q=52.0 size=       1kB time=00:00:04.62 bitrate=   1.3kbits/s speed=0.035x    frame=  190 fps=1.4 q=52.0 size=       1kB time=00:00:04.66 bitrate=   1.3kbits/s speed=0.0351x    frame=  192 fps=1.4 q=52.0 size=       1kB time=00:00:04.75 bitrate=   1.2kbits/s speed=0.0348x    frame=  194 fps=1.4 q=52.0 size=       1kB time=00:00:04.83 bitrate=   1.2kbits/s speed=0.0352x    frame=  196 fps=1.4 q=52.0 size=    1659kB time=00:00:04.91 bitrate=2764.2kbits/s speed=0.0356x    frame=  197 fps=1.4 q=52.0 size=    1659kB time=00:00:04.95 bitrate=2741.3kbits/s speed=0.0358x    frame=  198 fps=1.4 q=52.0 size=    1659kB time=00:00:05.00 bitrate=2718.3kbits/s speed=0.0357x    frame=  199 fps=1.4 q=52.0 size=    1659kB time=00:00:05.04 bitrate=2695.7kbits/s speed=0.0358x    frame=  200 fps=1.4 q=52.0 size=    1659kB time=00:00:05.08 bitrate=2673.9kbits/s speed=0.0359x    frame=  201 fps=1.4 q=52.0 size=    1659kB time=00:00:05.12 bitrate=2652.0kbits/s speed=0.036x    frame=  202 fps=1.4 q=52.0 size=    1659kB time=00:00:05.16 bitrate=2630.5kbits/s speed=0.0362x    frame=  203 fps=1.4 q=52.0 size=    1659kB time=00:00:05.20 bitrate=2609.8kbits/s speed=0.0363x    frame=  204 fps=1.4 q=52.0 size=    1659kB time=00:00:05.25 bitrate=2588.9kbits/s speed=0.0362x    frame=  206 fps=1.4 q=52.0 size=    1659kB time=00:00:05.33 bitrate=2548.6kbits/s speed=0.0362x    frame=  207 fps=1.4 q=52.0 size=    1659kB time=00:00:05.37 bitrate=2528.7kbits/s speed=0.0363x    frame=  208 fps=1.4 q=52.0 size=    1659kB time=00:00:05.41 bitrate=2509.1kbits/s speed=0.0364x    frame=  210 fps=1.4 q=52.0 size=    1659kB time=00:00:05.50 bitrate=2471.2kbits/s speed=0.0366x    frame=  211 fps=1.4 q=52.0 size=    1659kB time=00:00:05.54 bitrate=2452.5kbits/s speed=0.0367x    frame=  212 fps=1.4 q=52.0 size=    1659kB time=00:00:05.58 bitrate=2434.5kbits/s speed=0.0368x    frame=  214 fps=1.4 q=52.0 size=    1659kB time=00:00:05.66 bitrate=2398.4kbits/s speed=0.037x    frame=  216 fps=1.4 q=52.0 size=    1659kB time=00:00:05.75 bitrate=2363.8kbits/s speed=0.0372x    frame=  217 fps=1.4 q=52.0 size=    1659kB time=00:00:05.79 bitrate=2346.7kbits/s speed=0.0373x    frame=  218 fps=1.4 q=52.0 size=    1659kB time=00:00:05.83 bitrate=2330.2kbits/s speed=0.0375x    frame=  219 fps=1.4 q=52.0 size=    1659kB time=00:00:05.87 bitrate=2313.5kbits/s speed=0.0375x    frame=  221 fps=1.4 q=52.0 size=    1659kB time=00:00:05.95 bitrate=2281.3kbits/s speed=0.0377x    frame=  222 fps=1.4 q=52.0 size=    1659kB time=00:00:06.00 bitrate=2265.3kbits/s speed=0.0377x    frame=  223 fps=1.4 q=52.0 size=    1659kB time=00:00:06.04 bitrate=2249.6kbits/s speed=0.0378x    frame=  224 fps=1.4 q=52.0 size=    1659kB time=00:00:06.08 bitrate=2234.4kbits/s speed=0.0379x    frame=  225 fps=1.4 q=52.0 size=    1659kB time=00:00:06.12 bitrate=2219.1kbits/s speed=0.038x    frame=  226 fps=1.4 q=52.0 size=    1659kB time=00:00:06.16 bitrate=2204.0kbits/s speed=0.0381x    frame=  227 fps=1.4 q=52.0 size=    1659kB time=00:00:06.20 bitrate=2189.4kbits/s speed=0.038x    frame=  229 fps=1.4 q=52.0 size=    1659kB time=00:00:06.29 bitrate=2160.2kbits/s speed=0.0383x    frame=  230 fps=1.4 q=52.0 size=    1659kB time=00:00:06.33 bitrate=2146.2kbits/s speed=0.0385x    frame=  233 fps=1.4 q=52.0 size=    1659kB time=00:00:06.45 bitrate=2104.7kbits/s speed=0.0381x    frame=  235 fps=1.4 q=52.0 size=    1659kB time=00:00:06.54 bitrate=2077.7kbits/s speed=0.0384x    frame=  236 fps=1.4 q=52.0 size=    1659kB time=00:00:06.58 bitrate=2064.7kbits/s speed=0.0384x    frame=  237 fps=1.4 q=52.0 size=    1659kB time=00:00:06.62 bitrate=2051.6kbits/s speed=0.0385x    frame=  238 fps=1.4 q=52.0 size=    1659kB time=00:00:06.66 bitrate=2038.7kbits/s speed=0.0385x    frame=  239 fps=1.4 q=52.0 size=    1659kB time=00:00:06.70 bitrate=2026.3kbits/s speed=0.0384x    frame=  240 fps=1.4 q=52.0 size=    1659kB time=00:00:06.75 bitrate=2013.7kbits/s speed=0.0385x    frame=  241 fps=1.4 q=52.0 size=    1659kB time=00:00:06.79 bitrate=2001.2kbits/s speed=0.0385x    frame=  243 fps=1.4 q=52.0 size=    1659kB time=00:00:06.87 bitrate=1977.0kbits/s speed=0.0385x    frame=  244 fps=1.4 q=52.0 size=    1659kB time=00:00:06.91 bitrate=1965.0kbits/s speed=0.0386x    frame=  245 fps=1.4 q=52.0 size=    1659kB time=00:00:06.95 bitrate=1953.5kbits/s speed=0.0386x    frame=  246 fps=1.4 q=52.0 size=    1659kB time=00:00:07.00 bitrate=1941.8kbits/s speed=0.0386x    frame=  247 fps=1.4 q=52.0 size=    1659kB time=00:00:07.04 bitrate=1930.2kbits/s speed=0.0386x    frame=  248 fps=1.4 q=52.0 size=    1659kB time=00:00:07.08 bitrate=1919.0kbits/s speed=0.0387x    frame=  249 fps=1.3 q=52.0 size=    1659kB time=00:00:07.12 bitrate=1907.7kbits/s speed=0.0386x    frame=  250 fps=1.3 q=52.0 size=    1659kB time=00:00:07.16 bitrate=1896.5kbits/s speed=0.0386x    frame=  251 fps=1.3 q=52.0 size=    1659kB time=00:00:07.20 bitrate=1885.7kbits/s speed=0.0387x    frame=  252 fps=1.3 q=52.0 size=    1659kB time=00:00:07.25 bitrate=1874.8kbits/s speed=0.0388x    frame=  254 fps=1.3 q=52.0 size=    1659kB time=00:00:07.33 bitrate=1853.6kbits/s speed=0.039x    frame=  255 fps=1.3 q=52.0 size=    1659kB time=00:00:07.37 bitrate=1843.0kbits/s speed=0.0387x    frame=  256 fps=1.3 q=52.0 size=    1659kB time=00:00:07.41 bitrate=1832.6kbits/s speed=0.0387x    frame=  257 fps=1.3 q=52.0 size=    1659kB time=00:00:07.45 bitrate=1822.5kbits/s speed=0.0388x    frame=  259 fps=1.3 q=52.0 size=    1659kB time=00:00:07.54 bitrate=1802.2kbits/s speed=0.039x    frame=  260 fps=1.3 q=52.0 size=    1659kB time=00:00:07.58 bitrate=1792.5kbits/s speed=0.0387x    frame=  262 fps=1.3 q=52.0 size=    1659kB time=00:00:07.66 bitrate=1772.8kbits/s speed=0.039x    frame=  265 fps=1.3 q=51.0 size=    1659kB time=00:00:07.79 bitrate=1744.4kbits/s speed=0.0395x    frame=  266 fps=1.3 q=51.0 size=    1659kB time=00:00:07.83 bitrate=1735.3kbits/s speed=0.0396x    frame=  267 fps=1.3 q=51.0 size=    1659kB time=00:00:07.87 bitrate=1726.0kbits/s speed=0.0392x    frame=  269 fps=1.3 q=51.0 size=    1659kB time=00:00:07.95 bitrate=1708.0kbits/s speed=0.0395x    frame=  270 fps=1.3 q=51.0 size=    1659kB time=00:00:08.00 bitrate=1699.1kbits/s speed=0.0396x    frame=  272 fps=1.3 q=51.0 size=    1659kB time=00:00:08.08 bitrate=1681.6kbits/s speed=0.0399x    frame=  273 fps=1.3 q=51.0 size=    1659kB time=00:00:08.12 bitrate=1672.9kbits/s speed=0.0397x    frame=  274 fps=1.3 q=51.0 size=    1659kB time=00:00:08.16 bitrate=1664.3kbits/s speed=0.0396x    frame=  275 fps=1.3 q=51.0 size=    1659kB time=00:00:08.20 bitrate=1656.0kbits/s speed=0.0397x    frame=  276 fps=1.3 q=51.0 size=    1659kB time=00:00:08.25 bitrate=1647.6kbits/s speed=0.0397x    frame=  277 fps=1.3 q=51.0 size=    1659kB time=00:00:08.29 bitrate=1639.2kbits/s speed=0.0398x    frame=  279 fps=1.3 q=51.0 size=    1659kB time=00:00:08.37 bitrate=1623.0kbits/s speed=0.04x    frame=  281 fps=1.3 q=51.0 size=    1659kB time=00:00:08.45 bitrate=1607.1kbits/s speed=0.0401x    frame=  283 fps=1.3 q=51.0 size=    1659kB time=00:00:08.54 bitrate=1591.3kbits/s speed=0.0403x    frame=  284 fps=1.3 q=51.0 size=    1659kB time=00:00:08.58 bitrate=1583.7kbits/s speed=0.0401x    frame=  286 fps=1.3 q=51.0 size=    1659kB time=00:00:08.66 bitrate=1568.3kbits/s speed=0.0404x    frame=  289 fps=1.3 q=51.0 size=    1659kB time=00:00:08.79 bitrate=1546.0kbits/s speed=0.0407x    frame=  290 fps=1.3 q=51.0 size=    1659kB time=00:00:08.83 bitrate=1538.8kbits/s speed=0.0408x    frame=  291 fps=1.3 q=51.0 size=    1659kB time=00:00:08.87 bitrate=1531.6kbits/s speed=0.0408x    frame=  292 fps=1.3 q=51.0 size=    1659kB time=00:00:08.91 bitrate=1524.4kbits/s speed=0.0408x    frame=  294 fps=1.3 q=51.0 size=    1659kB time=00:00:09.00 bitrate=1510.3kbits/s speed=0.041x    frame=  295 fps=1.3 q=51.0 size=    1659kB time=00:00:09.04 bitrate=1503.3kbits/s speed=0.041x    frame=  297 fps=1.3 q=51.0 size=    1659kB time=00:00:09.12 bitrate=1489.6kbits/s speed=0.0412x    frame=  298 fps=1.3 q=51.0 size=    1659kB time=00:00:09.16 bitrate=1482.8kbits/s speed=0.0412x    frame=  299 fps=1.3 q=51.0 size=    1659kB time=00:00:09.20 bitrate=1476.2kbits/s speed=0.0412x    frame=  301 fps=1.3 q=51.0 size=    1659kB time=00:00:09.29 bitrate=1462.8kbits/s speed=0.0415x    frame=  302 fps=1.3 q=51.0 size=    1659kB time=00:00:09.33 bitrate=1456.4kbits/s speed=0.0413x    frame=  303 fps=1.3 q=51.0 size=    1659kB time=00:00:09.37 bitrate=1449.9kbits/s speed=0.0414x    frame=  306 fps=1.3 q=51.0 size=    1659kB time=00:00:09.50 bitrate=1430.8kbits/s speed=0.0418x    frame=  309 fps=1.3 q=50.0 size=    1659kB time=00:00:09.62 bitrate=1412.2kbits/s speed=0.0419x    frame=  310 fps=1.3 q=50.0 size=    1659kB time=00:00:09.66 bitrate=1406.1kbits/s speed=0.0419x    frame=  312 fps=1.3 q=50.0 size=    1659kB time=00:00:09.75 bitrate=1394.1kbits/s speed=0.0422x    frame=  314 fps=1.4 q=50.0 size=    1659kB time=00:00:09.83 bitrate=1382.4kbits/s speed=0.0424x    frame=  316 fps=1.4 q=50.0 size=    1659kB time=00:00:09.91 bitrate=1370.7kbits/s speed=0.0426x    frame=  318 fps=1.4 q=50.0 size=    3019kB time=00:00:10.00 bitrate=2472.9kbits/s speed=0.0428x    frame=  319 fps=1.4 q=50.0 size=    3019kB time=00:00:10.04 bitrate=2462.5kbits/s speed=0.0429x    frame=  320 fps=1.4 q=50.0 size=    3019kB time=00:00:10.08 bitrate=2452.5kbits/s speed=0.0429x    frame=  321 fps=1.4 q=48.0 size=    3019kB time=00:00:10.12 bitrate=2442.3kbits/s speed=0.0429x    frame=  322 fps=1.4 q=50.0 size=    3019kB time=00:00:10.16 bitrate=2432.3kbits/s speed=0.0429x    frame=  324 fps=1.4 q=50.0 size=    3019kB time=00:00:10.25 bitrate=2412.6kbits/s speed=0.0431x    frame=  326 fps=1.4 q=50.0 size=    3094kB time=00:00:10.33 bitrate=2452.4kbits/s speed=0.0433x    frame=  329 fps=1.4 q=50.0 size=    3094kB time=00:00:10.45 bitrate=2423.1kbits/s speed=0.0436x    frame=  334 fps=1.4 q=50.0 size=    3094kB time=00:00:10.66 bitrate=2375.6kbits/s speed=0.0444x    frame=  336 fps=1.4 q=47.0 size=    3094kB time=00:00:10.75 bitrate=2357.3kbits/s speed=0.0446x    frame=  340 fps=1.4 q=50.0 size=    3094kB time=00:00:10.91 bitrate=2321.2kbits/s speed=0.0451x    frame=  344 fps=1.4 q=50.0 size=    3094kB time=00:00:11.08 bitrate=2286.4kbits/s speed=0.0456x    frame=  346 fps=1.4 q=50.0 size=    3094kB time=00:00:11.16 bitrate=2269.2kbits/s speed=0.0456x    frame=  349 fps=1.4 q=49.0 size=    3094kB time=00:00:11.29 bitrate=2244.1kbits/s speed=0.0459x    frame=  351 fps=1.4 q=49.0 size=    3094kB time=00:00:11.37 bitrate=2227.8kbits/s speed=0.0461x    frame=  353 fps=1.4 q=49.0 size=    3094kB time=00:00:11.45 bitrate=2211.6kbits/s speed=0.0461x    frame=  354 fps=1.4 q=49.0 size=    3094kB time=00:00:11.50 bitrate=2203.5kbits/s speed=0.0461x    frame=  358 fps=1.4 q=49.0 size=    3094kB time=00:00:11.66 bitrate=2172.0kbits/s speed=0.0467x    frame=  359 fps=1.4 q=49.0 size=    3094kB time=00:00:11.70 bitrate=2164.4kbits/s speed=0.0468x    frame=  360 fps=1.4 q=49.0 size=    3094kB time=00:00:11.75 bitrate=2156.7kbits/s speed=0.0465x    frame=  362 fps=1.4 q=49.0 size=    3094kB time=00:00:11.83 bitrate=2141.5kbits/s speed=0.0467x    frame=  366 fps=1.4 q=49.0 size=    3094kB time=00:00:12.00 bitrate=2111.7kbits/s speed=0.0471x    frame=  368 fps=1.4 q=49.0 size=    3094kB time=00:00:12.08 bitrate=2097.2kbits/s speed=0.0474x    frame=  369 fps=1.4 q=49.0 size=    3094kB time=00:00:12.12 bitrate=2090.0kbits/s speed=0.0473x    frame=  373 fps=1.4 q=49.0 size=    3094kB time=00:00:12.29 bitrate=2061.6kbits/s speed=0.0478x    frame=  376 fps=1.5 q=48.0 size=    3094kB time=00:00:12.41 bitrate=2040.8kbits/s speed=0.048x    frame=  377 fps=1.5 q=48.0 size=    3094kB time=00:00:12.45 bitrate=2034.1kbits/s speed=0.048x    frame=  382 fps=1.5 q=48.0 size=    3094kB time=00:00:12.66 bitrate=2000.5kbits/s speed=0.0486x    frame=  383 fps=1.5 q=48.0 size=    3094kB time=00:00:12.70 bitrate=1994.1kbits/s speed=0.0486x    frame=  388 fps=1.5 q=48.0 size=    3094kB time=00:00:12.91 bitrate=1961.8kbits/s speed=0.0492x    frame=  389 fps=1.5 q=48.0 size=    3094kB time=00:00:12.95 bitrate=1955.6kbits/s speed=0.0491x    frame=  394 fps=1.5 q=47.0 size=    3094kB time=00:00:13.16 bitrate=1924.6kbits/s speed=0.0496x    frame=  396 fps=1.5 q=47.0 size=    3094kB time=00:00:13.25 bitrate=1912.5kbits/s speed=0.0498x    frame=  400 fps=1.5 q=47.0 size=    3094kB time=00:00:13.41 bitrate=1888.7kbits/s speed=0.0501x    frame=  404 fps=1.5 q=47.0 size=    3094kB time=00:00:13.58 bitrate=1865.6kbits/s speed=0.0506x    frame=  405 fps=1.5 q=47.0 size=    3094kB time=00:00:13.62 bitrate=1859.9kbits/s speed=0.0506x    frame=  406 fps=1.5 q=47.0 size=    3094kB time=00:00:13.66 bitrate=1854.2kbits/s speed=0.0507x    frame=  408 fps=1.5 q=47.0 size=    3094kB time=00:00:13.75 bitrate=1843.0kbits/s speed=0.0508x    frame=  409 fps=1.5 q=47.0 size=    3094kB time=00:00:13.79 bitrate=1837.4kbits/s speed=0.0508x    frame=  414 fps=1.5 q=46.0 size=    3094kB time=00:00:14.00 bitrate=1810.1kbits/s speed=0.0512x    frame=  419 fps=1.5 q=46.0 size=    3094kB time=00:00:14.20 bitrate=1783.6kbits/s speed=0.0519x    frame=  420 fps=1.5 q=46.0 size=    3094kB time=00:00:14.25 bitrate=1778.3kbits/s speed=0.0517x    frame=  426 fps=1.5 q=46.0 size=    3094kB time=00:00:14.50 bitrate=1747.7kbits/s speed=0.0522x    frame=  431 fps=1.5 q=46.0 size=    3094kB time=00:00:14.70 bitrate=1723.0kbits/s speed=0.0527x    frame=  432 fps=1.5 q=45.0 size=    3094kB time=00:00:14.75 bitrate=1718.0kbits/s speed=0.0527x    frame=  433 fps=1.5 q=45.0 size=    3094kB time=00:00:14.79 bitrate=1713.2kbits/s speed=0.0528x    frame=  437 fps=1.6 q=45.0 size=    3094kB time=00:00:14.95 bitrate=1694.2kbits/s speed=0.0533x    frame=  439 fps=1.5 q=45.0 size=    3094kB time=00:00:15.04 bitrate=1684.7kbits/s speed=0.0527x    frame=  441 fps=1.5 q=45.0 size=    3094kB time=00:00:15.12 bitrate=1675.5kbits/s speed=0.0528x    frame=  444 fps=1.5 q=45.0 size=    3094kB time=00:00:15.25 bitrate=1661.7kbits/s speed=0.0531x    frame=  445 fps=1.5 q=45.0 size=    3891kB time=00:00:15.29 bitrate=2084.3kbits/s speed=0.0531x    frame=  446 fps=1.5 q=45.0 size=    3891kB time=00:00:15.33 bitrate=2078.7kbits/s speed=0.0529x    frame=  448 fps=1.5 q=45.0 size=    3891kB time=00:00:15.41 bitrate=2067.4kbits/s speed=0.053x    frame=  451 fps=1.5 q=45.0 size=    3891kB time=00:00:15.54 bitrate=2050.8kbits/s speed=0.0533x    frame=  452 fps=1.5 q=45.0 size=    3891kB time=00:00:15.58 bitrate=2045.4kbits/s speed=0.0532x    frame=  453 fps=1.5 q=45.0 size=    3891kB time=00:00:15.62 bitrate=2039.9kbits/s speed=0.0532x    frame=  456 fps=1.5 q=45.0 size=    3891kB time=00:00:15.75 bitrate=2023.7kbits/s speed=0.0535x    frame=  458 fps=1.6 q=45.0 size=    3891kB time=00:00:15.83 bitrate=2013.1kbits/s speed=0.0537x    frame=  459 fps=1.5 q=45.0 size=    3891kB time=00:00:15.87 bitrate=2007.7kbits/s speed=0.0534x    frame=  461 fps=1.5 q=45.0 size=    3891kB time=00:00:15.95 bitrate=1997.3kbits/s speed=0.0535x    frame=  464 fps=1.6 q=45.0 size=    3891kB time=00:00:16.08 bitrate=1981.8kbits/s speed=0.0538x    frame=  465 fps=1.5 q=44.0 size=    3891kB time=00:00:16.12 bitrate=1976.6kbits/s speed=0.0537x    frame=  468 fps=1.5 q=44.0 size=    3891kB time=00:00:16.25 bitrate=1961.4kbits/s speed=0.0537x    frame=  470 fps=1.6 q=44.0 size=    3891kB time=00:00:16.33 bitrate=1951.4kbits/s speed=0.0539x    frame=  471 fps=1.5 q=44.0 size=    3891kB time=00:00:16.37 bitrate=1946.4kbits/s speed=0.0537x    frame=  473 fps=1.5 q=44.0 size=    3891kB time=00:00:16.45 bitrate=1936.6kbits/s speed=0.0539x    frame=  475 fps=1.6 q=45.0 size=    3891kB time=00:00:16.54 bitrate=1926.8kbits/s speed=0.054x    frame=  476 fps=1.5 q=45.0 size=    3891kB time=00:00:16.58 bitrate=1922.0kbits/s speed=0.0538x    frame=  478 fps=1.5 q=45.0 size=    3891kB time=00:00:16.66 bitrate=1912.3kbits/s speed=0.0539x    frame=  482 fps=1.5 q=45.0 size=    3891kB time=00:00:16.83 bitrate=1893.5kbits/s speed=0.054x    frame=  484 fps=1.5 q=45.0 size=    3891kB time=00:00:16.91 bitrate=1884.1kbits/s speed=0.0541x    frame=  487 fps=1.6 q=45.0 size=    3891kB time=00:00:17.04 bitrate=1870.3kbits/s speed=0.0543x    frame=  488 fps=1.6 q=44.0 size=    3891kB time=00:00:17.08 bitrate=1865.8kbits/s speed=0.0544x    frame=  489 fps=1.6 q=44.0 size=    3891kB time=00:00:17.12 bitrate=1861.2kbits/s speed=0.0543x    frame=  490 fps=1.6 q=44.0 size=    3891kB time=00:00:17.16 bitrate=1856.6kbits/s speed=0.0543x    frame=  494 fps=1.5 q=44.0 size=    3891kB time=00:00:17.33 bitrate=1838.9kbits/s speed=0.054x    frame=  497 fps=1.5 q=44.0 size=    3891kB time=00:00:17.45 bitrate=1825.7kbits/s speed=0.0543x    frame=  499 fps=1.5 q=44.0 size=    3891kB time=00:00:17.54 bitrate=1817.0kbits/s speed=0.0544x    frame=  500 fps=1.5 q=44.0 size=    3891kB time=00:00:17.58 bitrate=1812.7kbits/s speed=0.0543x    frame=  500 fps=1.4 q=-1.0 Lsize=    5136kB time=00:00:20.70 bitrate=2031.7kbits/s speed=0.0582x    
video:5132kB audio:0kB subtitle:0kB other streams:0kB global headers:0kB muxing overhead: 0.084664%
bench: utime=1289.776s
bench: maxrss=2787776kB
[libx264 @ 0x3f081c0] frame I:3     Avg QP:39.04  size: 52986
[libx264 @ 0x3f081c0] frame P:268   Avg QP:45.32  size: 13664
[libx264 @ 0x3f081c0] frame B:229   Avg QP:44.29  size:  6259
[libx264 @ 0x3f081c0] consecutive B-frames: 36.2%  7.6% 18.0% 17.6% 11.0%  9.6%  0.0%  0.0%  0.0%
[libx264 @ 0x3f081c0] mb I  I16..4: 23.1% 76.2%  0.8%
[libx264 @ 0x3f081c0] mb P  I16..4:  7.8% 35.4%  0.0%  P16..4:  9.9%  0.2%  0.2%  0.0%  0.0%    skip:46.5%
[libx264 @ 0x3f081c0] mb B  I16..4:  0.4%  0.7%  0.0%  B16..8: 18.1%  0.4%  0.0%  direct: 0.1%  skip:80.3%  L0:42.2% L1:57.4% BI: 0.3%
[libx264 @ 0x3f081c0] final ratefactor: 42.00
[libx264 @ 0x3f081c0] 8x8 transform intra:81.3% inter:95.6%
[libx264 @ 0x3f081c0] direct mvs  spatial:99.1% temporal:0.9%
[libx264 @ 0x3f081c0] coded y,uvDC,uvAC intra: 4.2% 10.3% 0.0% inter: 0.3% 0.6% 0.0%
[libx264 @ 0x3f081c0] i16 v,h,dc,p: 40% 36%  4% 20%
[libx264 @ 0x3f081c0] i8 v,h,dc,ddl,ddr,vr,hd,vl,hu: 14%  6% 78%  0%  0%  0%  1%  0%  0%
[libx264 @ 0x3f081c0] i4 v,h,dc,ddl,ddr,vr,hd,vl,hu: 17% 12% 12% 12% 12%  9% 10%  6%  9%
[libx264 @ 0x3f081c0] i8c dc,h,v,p: 95%  3%  1%  0%
[libx264 @ 0x3f081c0] Weighted P-Frames: Y:1.5% UV:1.1%
[libx264 @ 0x3f081c0] ref P L0: 44.1%  3.9% 17.9%  6.0%  5.1%  4.5%  4.5%  1.9%  2.1%  1.8%  1.7%  1.5%  1.4%  1.4%  1.4%  0.8%
[libx264 @ 0x3f081c0] ref B L0: 80.4%  7.4%  4.2%  1.6%  1.3%  1.0%  1.0%  0.5%  0.5%  0.4%  0.4%  0.4%  0.4%  0.4%  0.2%
[libx264 @ 0x3f081c0] ref B L1: 97.6%  2.4%
[libx264 @ 0x3f081c0] kb/s:2017.60
